<svg id="visual" viewBox="0 0 5000 300" width="5000" height="300" xmlns="http://www.w3.org/2000/svg" xmlns:xlink="http://www.w3.org/1999/xlink" version="1.1"><path d="M0 112L75.8 102.5C151.7 93 303.3 74 454.8 64.2C606.3 54.3 757.7 53.7 909.2 65.5C1060.7 77.3 1212.3 101.7 1363.8 112.7C1515.3 123.7 1666.7 121.3 1818.2 106.2C1969.7 91 2121.3 63 2272.8 47.7C2424.3 32.3 2575.7 29.7 2727.2 38C2878.7 46.3 3030.3 65.7 3181.8 76.5C3333.3 87.3 3484.7 89.7 3636.2 84.3C3787.7 79 3939.3 66 4090.8 64.8C4242.3 63.7 4393.7 74.3 4545.2 78.7C4696.7 83 4848.3 81 4924.2 80L5000 79L5000 0L4924.2 0C4848.3 0 4696.7 0 4545.2 0C4393.7 0 4242.3 0 4090.8 0C3939.3 0 3787.7 0 3636.2 0C3484.7 0 3333.3 0 3181.8 0C3030.3 0 2878.7 0 2727.2 0C2575.7 0 2424.3 0 2272.8 0C2121.3 0 1969.7 0 1818.2 0C1666.7 0 1515.3 0 1363.8 0C1212.3 0 1060.7 0 909.2 0C757.7 0 606.3 0 454.8 0C303.3 0 151.7 0 75.8 0L0 0Z" fill="#b42428" stroke-linecap="round" stroke-linejoin="miter"></path></svg>