{
	"asset":{
		"generator":"Khronos glTF Blender I/O v3.5.30",
		"version":"2.0"
	},
	"scene":0,
	"scenes":[
		{
			"name":"Scene",
			"nodes":[
				3,
				6,
				9,
				14,
				15,
				16
			]
		}
	],
	"nodes":[
		{
			"name":"Sphere_2"
		},
		{
			"children":[
				0
			],
			"name":"GLTF_SceneRootNode",
			"rotation":[
				0.70710688829422,
				0,
				0,
				0.7071066498756409
			]
		},
		{
			"children":[
				1
			],
			"name":"root"
		},
		{
			"children":[
				2
			],
			"name":"Sketchfab_model",
			"rotation":[
				-0.70710688829422,
				0,
				0,
				0.7071066498756409
			]
		},
		{
			"name":"Sphere_2.001"
		},
		{
			"children":[
				4
			],
			"name":"GLTF_SceneRootNode.001",
			"rotation":[
				0.70710688829422,
				0,
				0,
				0.7071066498756409
			]
		},
		{
			"children":[
				5
			],
			"name":"root.001"
		},
		{
			"name":"Sphere_2.002"
		},
		{
			"children":[
				7
			],
			"name":"GLTF_SceneRootNode.002",
			"rotation":[
				0.70710688829422,
				0,
				0,
				0.7071066498756409
			]
		},
		{
			"children":[
				8
			],
			"name":"root.002"
		},
		{
			"mesh":0,
			"name":"Object_4"
		},
		{
			"children":[
				10
			],
			"name":"Sphere_2.003"
		},
		{
			"children":[
				11
			],
			"name":"GLTF_SceneRootNode.003",
			"rotation":[
				0.70710688829422,
				0,
				0,
				0.7071066498756409
			]
		},
		{
			"children":[
				12
			],
			"name":"root.003"
		},
		{
			"children":[
				13
			],
			"name":"Sketchfab_model.001",
			"rotation":[
				-0.70710688829422,
				0,
				0,
				0.7071066498756409
			]
		},
		{
			"mesh":1,
			"name":"Cone",
			"rotation":[
				-0.4231697916984558,
				-0.022003619000315666,
				-0.015715081244707108,
				0.9056469798088074
			],
			"scale":[
				0.024014858528971672,
				0.02440476417541504,
				0.025034479796886444
			],
			"translation":[
				0.052383922040462494,
				0.6401610970497131,
				-0.7530622482299805
			]
		},
		{
			"mesh":2,
			"name":"Cone.001",
			"rotation":[
				-0.3176715672016144,
				0.028668837621808052,
				0.09857229888439178,
				0.942627489566803
			],
			"scale":[
				0.024014856666326523,
				0.02440476417541504,
				0.025034477934241295
			],
			"translation":[
				-0.19718503952026367,
				0.7755762934684753,
				-0.584555983543396
			]
		}
	],
	"materials":[
		{
			"doubleSided":true,
			"name":"Material.004",
			"normalTexture":{
				"index":0
			},
			"pbrMetallicRoughness":{
				"baseColorTexture":{
					"index":1
				},
				"metallicFactor":0,
				"metallicRoughnessTexture":{
					"index":2
				}
			}
		}
	],
	"meshes":[
		{
			"name":"Object_0.003",
			"primitives":[
				{
					"attributes":{
						"POSITION":0,
						"TEXCOORD_0":1,
						"NORMAL":2
					},
					"indices":3,
					"material":0
				}
			]
		},
		{
			"name":"Cone",
			"primitives":[
				{
					"attributes":{
						"POSITION":4,
						"TEXCOORD_0":5,
						"NORMAL":6
					},
					"indices":7
				}
			]
		},
		{
			"name":"Cone.001",
			"primitives":[
				{
					"attributes":{
						"POSITION":8,
						"TEXCOORD_0":9,
						"NORMAL":10
					},
					"indices":7
				}
			]
		}
	],
	"textures":[
		{
			"sampler":0,
			"source":0
		},
		{
			"sampler":0,
			"source":1
		},
		{
			"sampler":0,
			"source":2
		}
	],
	"images":[
		{
			"mimeType":"image/png",
			"name":"Material.001_normal",
			"uri":"Material_001_normal.png"
		},
		{
			"mimeType":"image/jpeg",
			"name":"Material.001_baseColor",
			"uri":"Material_001_baseColor.jpg"
		},
		{
			"mimeType":"image/png",
			"name":"Material.001_metallicRoughness",
			"uri":"Material_001_metallicRoughness.png"
		}
	],
	"accessors":[
		{
			"bufferView":0,
			"componentType":5126,
			"count":33700,
			"max":[
				0.9872313737869263,
				0.9975767135620117,
				0.9872314929962158
			],
			"min":[
				-0.9872310161590576,
				-0.9975767135620117,
				-0.9872310161590576
			],
			"type":"VEC3"
		},
		{
			"bufferView":1,
			"componentType":5126,
			"count":33700,
			"type":"VEC2"
		},
		{
			"bufferView":2,
			"componentType":5126,
			"count":33700,
			"type":"VEC3"
		},
		{
			"bufferView":3,
			"componentType":5123,
			"count":190464,
			"type":"SCALAR"
		},
		{
			"bufferView":4,
			"componentType":5126,
			"count":128,
			"max":[
				1,
				1,
				1
			],
			"min":[
				-1,
				-1,
				-1
			],
			"type":"VEC3"
		},
		{
			"bufferView":5,
			"componentType":5126,
			"count":128,
			"type":"VEC2"
		},
		{
			"bufferView":6,
			"componentType":5126,
			"count":128,
			"type":"VEC3"
		},
		{
			"bufferView":7,
			"componentType":5123,
			"count":186,
			"type":"SCALAR"
		},
		{
			"bufferView":8,
			"componentType":5126,
			"count":128,
			"max":[
				1,
				1,
				1
			],
			"min":[
				-1,
				-1,
				-1
			],
			"type":"VEC3"
		},
		{
			"bufferView":9,
			"componentType":5126,
			"count":128,
			"type":"VEC2"
		},
		{
			"bufferView":10,
			"componentType":5126,
			"count":128,
			"type":"VEC3"
		}
	],
	"bufferViews":[
		{
			"buffer":0,
			"byteLength":404400,
			"byteOffset":0,
			"target":34962
		},
		{
			"buffer":0,
			"byteLength":269600,
			"byteOffset":404400,
			"target":34962
		},
		{
			"buffer":0,
			"byteLength":404400,
			"byteOffset":674000,
			"target":34962
		},
		{
			"buffer":0,
			"byteLength":380928,
			"byteOffset":1078400,
			"target":34963
		},
		{
			"buffer":0,
			"byteLength":1536,
			"byteOffset":1459328,
			"target":34962
		},
		{
			"buffer":0,
			"byteLength":1024,
			"byteOffset":1460864,
			"target":34962
		},
		{
			"buffer":0,
			"byteLength":1536,
			"byteOffset":1461888,
			"target":34962
		},
		{
			"buffer":0,
			"byteLength":372,
			"byteOffset":1463424,
			"target":34963
		},
		{
			"buffer":0,
			"byteLength":1536,
			"byteOffset":1463796,
			"target":34962
		},
		{
			"buffer":0,
			"byteLength":1024,
			"byteOffset":1465332,
			"target":34962
		},
		{
			"buffer":0,
			"byteLength":1536,
			"byteOffset":1466356,
			"target":34962
		}
	],
	"samplers":[
		{
			"magFilter":9729,
			"minFilter":9987
		}
	],
	"buffers":[
		{
			"byteLength":1467892,
			"uri":"earthCones.bin"
		}
	]
}
