<svg id="visual" viewBox="0 0 5000 1500" width="5000" height="1500" xmlns="http://www.w3.org/2000/svg" xmlns:xlink="http://www.w3.org/1999/xlink" version="1.1"><path d="M0 343L69.5 372.2C139 401.3 278 459.7 416.8 480.3C555.7 501 694.3 484 833.2 479.5C972 475 1111 483 1250 460.5C1389 438 1528 385 1666.8 390.2C1805.7 395.3 1944.3 458.7 2083.2 480C2222 501.3 2361 480.7 2500 457C2639 433.3 2778 406.7 2916.8 391.8C3055.7 377 3194.3 374 3333.2 399.3C3472 424.7 3611 478.3 3750 475.5C3889 472.7 4028 413.3 4166.8 397.2C4305.7 381 4444.3 408 4583.2 402.5C4722 397 4861 359 4930.5 340L5000 321L5000 1501L4930.5 1501C4861 1501 4722 1501 4583.2 1501C4444.3 1501 4305.7 1501 4166.8 1501C4028 1501 3889 1501 3750 1501C3611 1501 3472 1501 3333.2 1501C3194.3 1501 3055.7 1501 2916.8 1501C2778 1501 2639 1501 2500 1501C2361 1501 2222 1501 2083.2 1501C1944.3 1501 1805.7 1501 1666.8 1501C1528 1501 1389 1501 1250 1501C1111 1501 972 1501 833.2 1501C694.3 1501 555.7 1501 416.8 1501C278 1501 139 1501 69.5 1501L0 1501Z" fill="#ff7d77"></path><path d="M0 648L69.5 644.8C139 641.7 278 635.3 416.8 660.3C555.7 685.3 694.3 741.7 833.2 759.2C972 776.7 1111 755.3 1250 727.5C1389 699.7 1528 665.3 1666.8 672C1805.7 678.7 1944.3 726.3 2083.2 743C2222 759.7 2361 745.3 2500 721.2C2639 697 2778 663 2916.8 652.2C3055.7 641.3 3194.3 653.7 3333.2 665.3C3472 677 3611 688 3750 684.8C3889 681.7 4028 664.3 4166.8 662.8C4305.7 661.3 4444.3 675.7 4583.2 667.7C4722 659.7 4861 629.3 4930.5 614.2L5000 599L5000 1501L4930.5 1501C4861 1501 4722 1501 4583.2 1501C4444.3 1501 4305.7 1501 4166.8 1501C4028 1501 3889 1501 3750 1501C3611 1501 3472 1501 3333.2 1501C3194.3 1501 3055.7 1501 2916.8 1501C2778 1501 2639 1501 2500 1501C2361 1501 2222 1501 2083.2 1501C1944.3 1501 1805.7 1501 1666.8 1501C1528 1501 1389 1501 1250 1501C1111 1501 972 1501 833.2 1501C694.3 1501 555.7 1501 416.8 1501C278 1501 139 1501 69.5 1501L0 1501Z" fill="#f7524d"></path><path d="M0 912L69.5 914.5C139 917 278 922 416.8 926C555.7 930 694.3 933 833.2 942C972 951 1111 966 1250 981.2C1389 996.3 1528 1011.7 1666.8 995.5C1805.7 979.3 1944.3 931.7 2083.2 903.2C2222 874.7 2361 865.3 2500 882.3C2639 899.3 2778 942.7 2916.8 963.3C3055.7 984 3194.3 982 3333.2 962.8C3472 943.7 3611 907.3 3750 893.8C3889 880.3 4028 889.7 4166.8 889C4305.7 888.3 4444.3 877.7 4583.2 868C4722 858.3 4861 849.7 4930.5 845.3L5000 841L5000 1501L4930.5 1501C4861 1501 4722 1501 4583.2 1501C4444.3 1501 4305.7 1501 4166.8 1501C4028 1501 3889 1501 3750 1501C3611 1501 3472 1501 3333.2 1501C3194.3 1501 3055.7 1501 2916.8 1501C2778 1501 2639 1501 2500 1501C2361 1501 2222 1501 2083.2 1501C1944.3 1501 1805.7 1501 1666.8 1501C1528 1501 1389 1501 1250 1501C1111 1501 972 1501 833.2 1501C694.3 1501 555.7 1501 416.8 1501C278 1501 139 1501 69.5 1501L0 1501Z" fill="#dc3032"></path><path d="M0 1183L69.5 1199C139 1215 278 1247 416.8 1261.7C555.7 1276.3 694.3 1273.7 833.2 1271C972 1268.3 1111 1265.7 1250 1263C1389 1260.3 1528 1257.7 1666.8 1240.3C1805.7 1223 1944.3 1191 2083.2 1190C2222 1189 2361 1219 2500 1214.3C2639 1209.7 2778 1170.3 2916.8 1147.8C3055.7 1125.3 3194.3 1119.7 3333.2 1140.5C3472 1161.3 3611 1208.7 3750 1218.5C3889 1228.3 4028 1200.7 4166.8 1180.3C4305.7 1160 4444.3 1147 4583.2 1162.8C4722 1178.7 4861 1223.3 4930.5 1245.7L5000 1268L5000 1501L4930.5 1501C4861 1501 4722 1501 4583.2 1501C4444.3 1501 4305.7 1501 4166.8 1501C4028 1501 3889 1501 3750 1501C3611 1501 3472 1501 3333.2 1501C3194.3 1501 3055.7 1501 2916.8 1501C2778 1501 2639 1501 2500 1501C2361 1501 2222 1501 2083.2 1501C1944.3 1501 1805.7 1501 1666.8 1501C1528 1501 1389 1501 1250 1501C1111 1501 972 1501 833.2 1501C694.3 1501 555.7 1501 416.8 1501C278 1501 139 1501 69.5 1501L0 1501Z" fill="#b42428"></path></svg>