<svg id="visual" viewBox="0 0 900 200" width="900" height="200" xmlns="http://www.w3.org/2000/svg" xmlns:xlink="http://www.w3.org/1999/xlink" version="1.1"><path d="M0 66L10.7 63.3C21.3 60.7 42.7 55.3 64.2 53.5C85.7 51.7 107.3 53.3 128.8 51.2C150.3 49 171.7 43 193 43.8C214.3 44.7 235.7 52.3 257 56.5C278.3 60.7 299.7 61.3 321.2 60.2C342.7 59 364.3 56 385.8 53C407.3 50 428.7 47 450 46C471.3 45 492.7 46 514.2 43.7C535.7 41.3 557.3 35.7 578.8 36.2C600.3 36.7 621.7 43.3 643 45.7C664.3 48 685.7 46 707 42.7C728.3 39.3 749.7 34.7 771.2 34C792.7 33.3 814.3 36.7 835.8 41.2C857.3 45.7 878.7 51.3 889.3 54.2L900 57L900 0L889.3 0C878.7 0 857.3 0 835.8 0C814.3 0 792.7 0 771.2 0C749.7 0 728.3 0 707 0C685.7 0 664.3 0 643 0C621.7 0 600.3 0 578.8 0C557.3 0 535.7 0 514.2 0C492.7 0 471.3 0 450 0C428.7 0 407.3 0 385.8 0C364.3 0 342.7 0 321.2 0C299.7 0 278.3 0 257 0C235.7 0 214.3 0 193 0C171.7 0 150.3 0 128.8 0C107.3 0 85.7 0 64.2 0C42.7 0 21.3 0 10.7 0L0 0Z" fill="#F13737" stroke-linecap="round" stroke-linejoin="miter"></path></svg>