<svg id="visual" viewBox="0 0 5000 1500" width="5000" height="1500" xmlns="http://www.w3.org/2000/svg" xmlns:xlink="http://www.w3.org/1999/xlink" version="1.1"><path d="M0 616L104.2 616C208.3 616 416.7 616 625 591C833.3 566 1041.7 516 1250 453.5C1458.3 391 1666.7 316 1875 278.5C2083.3 241 2291.7 241 2500 291C2708.3 341 2916.7 441 3125 483.5C3333.3 526 3541.7 511 3750 486C3958.3 461 4166.7 426 4375 456C4583.3 486 4791.7 581 4895.8 628.5L5000 676L5000 0L4895.8 0C4791.7 0 4583.3 0 4375 0C4166.7 0 3958.3 0 3750 0C3541.7 0 3333.3 0 3125 0C2916.7 0 2708.3 0 2500 0C2291.7 0 2083.3 0 1875 0C1666.7 0 1458.3 0 1250 0C1041.7 0 833.3 0 625 0C416.7 0 208.3 0 104.2 0L0 0Z" fill="#ff7d77"></path><path d="M0 886L104.2 903.5C208.3 921 416.7 956 625 966C833.3 976 1041.7 961 1250 916C1458.3 871 1666.7 796 1875 776C2083.3 756 2291.7 791 2500 813.5C2708.3 836 2916.7 846 3125 861C3333.3 876 3541.7 896 3750 908.5C3958.3 921 4166.7 926 4375 926C4583.3 926 4791.7 921 4895.8 918.5L5000 916L5000 674L4895.8 626.5C4791.7 579 4583.3 484 4375 454C4166.7 424 3958.3 459 3750 484C3541.7 509 3333.3 524 3125 481.5C2916.7 439 2708.3 339 2500 289C2291.7 239 2083.3 239 1875 276.5C1666.7 314 1458.3 389 1250 451.5C1041.7 514 833.3 564 625 589C416.7 614 208.3 614 104.2 614L0 614Z" fill="#f95d57"></path><path d="M0 1006L104.2 1036C208.3 1066 416.7 1126 625 1156C833.3 1186 1041.7 1186 1250 1138.5C1458.3 1091 1666.7 996 1875 951C2083.3 906 2291.7 911 2500 928.5C2708.3 946 2916.7 976 3125 1018.5C3333.3 1061 3541.7 1116 3750 1143.5C3958.3 1171 4166.7 1171 4375 1171C4583.3 1171 4791.7 1171 4895.8 1171L5000 1171L5000 914L4895.8 916.5C4791.7 919 4583.3 924 4375 924C4166.7 924 3958.3 919 3750 906.5C3541.7 894 3333.3 874 3125 859C2916.7 844 2708.3 834 2500 811.5C2291.7 789 2083.3 754 1875 774C1666.7 794 1458.3 869 1250 914C1041.7 959 833.3 974 625 964C416.7 954 208.3 919 104.2 901.5L0 884Z" fill="#f13737"></path><path d="M0 1186L104.2 1208.5C208.3 1231 416.7 1276 625 1301C833.3 1326 1041.7 1331 1250 1306C1458.3 1281 1666.7 1226 1875 1183.5C2083.3 1141 2291.7 1111 2500 1131C2708.3 1151 2916.7 1221 3125 1266C3333.3 1311 3541.7 1331 3750 1328.5C3958.3 1326 4166.7 1301 4375 1286C4583.3 1271 4791.7 1266 4895.8 1263.5L5000 1261L5000 1169L4895.8 1169C4791.7 1169 4583.3 1169 4375 1169C4166.7 1169 3958.3 1169 3750 1141.5C3541.7 1114 3333.3 1059 3125 1016.5C2916.7 974 2708.3 944 2500 926.5C2291.7 909 2083.3 904 1875 949C1666.7 994 1458.3 1089 1250 1136.5C1041.7 1184 833.3 1184 625 1154C416.7 1124 208.3 1064 104.2 1034L0 1004Z" fill="#d22d30"></path><path d="M0 1501L104.2 1501C208.3 1501 416.7 1501 625 1501C833.3 1501 1041.7 1501 1250 1501C1458.3 1501 1666.7 1501 1875 1501C2083.3 1501 2291.7 1501 2500 1501C2708.3 1501 2916.7 1501 3125 1501C3333.3 1501 3541.7 1501 3750 1501C3958.3 1501 4166.7 1501 4375 1501C4583.3 1501 4791.7 1501 4895.8 1501L5000 1501L5000 1259L4895.8 1261.5C4791.7 1264 4583.3 1269 4375 1284C4166.7 1299 3958.3 1324 3750 1326.5C3541.7 1329 3333.3 1309 3125 1264C2916.7 1219 2708.3 1149 2500 1129C2291.7 1109 2083.3 1139 1875 1181.5C1666.7 1224 1458.3 1279 1250 1304C1041.7 1329 833.3 1324 625 1299C416.7 1274 208.3 1229 104.2 1206.5L0 1184Z" fill="#b42428"></path></svg>