<svg id="visual" viewBox="0 0 5000 200" width="5000" height="200" xmlns="http://www.w3.org/2000/svg" xmlns:xlink="http://www.w3.org/1999/xlink" version="1.1"><path d="M0 79L26.8 75.8C53.7 72.7 107.3 66.3 161.2 63.2C215 60 269 60 322.8 58C376.7 56 430.3 52 484 51.2C537.7 50.3 591.3 52.7 645 51.5C698.7 50.3 752.3 45.7 806.2 44.5C860 43.3 914 45.7 967.8 51.8C1021.7 58 1075.3 68 1129 75.3C1182.7 82.7 1236.3 87.3 1290.2 82C1344 76.7 1398 61.3 1451.8 58.7C1505.7 56 1559.3 66 1613 73.5C1666.7 81 1720.3 86 1774 85.8C1827.7 85.7 1881.3 80.3 1935.2 81.2C1989 82 2043 89 2096.8 84.8C2150.7 80.7 2204.3 65.3 2258 62.8C2311.7 60.3 2365.3 70.7 2419.2 70.2C2473 69.7 2527 58.3 2580.8 53.2C2634.7 48 2688.3 49 2742 58.2C2795.7 67.3 2849.3 84.7 2903.2 92.3C2957 100 3011 98 3064.8 95C3118.7 92 3172.3 88 3226 87C3279.7 86 3333.3 88 3387 82.8C3440.7 77.7 3494.3 65.3 3548.2 62.2C3602 59 3656 65 3709.8 65.8C3763.7 66.7 3817.3 62.3 3871 56.7C3924.7 51 3978.3 44 4032.2 49.8C4086 55.7 4140 74.3 4193.8 82.8C4247.7 91.3 4301.3 89.7 4355 82.5C4408.7 75.3 4462.3 62.7 4516 57.5C4569.7 52.3 4623.3 54.7 4677.2 61.7C4731 68.7 4785 80.3 4838.8 83.3C4892.7 86.3 4946.3 80.7 4973.2 77.8L5000 75L5000 0L4973.2 0C4946.3 0 4892.7 0 4838.8 0C4785 0 4731 0 4677.2 0C4623.3 0 4569.7 0 4516 0C4462.3 0 4408.7 0 4355 0C4301.3 0 4247.7 0 4193.8 0C4140 0 4086 0 4032.2 0C3978.3 0 3924.7 0 3871 0C3817.3 0 3763.7 0 3709.8 0C3656 0 3602 0 3548.2 0C3494.3 0 3440.7 0 3387 0C3333.3 0 3279.7 0 3226 0C3172.3 0 3118.7 0 3064.8 0C3011 0 2957 0 2903.2 0C2849.3 0 2795.7 0 2742 0C2688.3 0 2634.7 0 2580.8 0C2527 0 2473 0 2419.2 0C2365.3 0 2311.7 0 2258 0C2204.3 0 2150.7 0 2096.8 0C2043 0 1989 0 1935.2 0C1881.3 0 1827.7 0 1774 0C1720.3 0 1666.7 0 1613 0C1559.3 0 1505.7 0 1451.8 0C1398 0 1344 0 1290.2 0C1236.3 0 1182.7 0 1129 0C1075.3 0 1021.7 0 967.8 0C914 0 860 0 806.2 0C752.3 0 698.7 0 645 0C591.3 0 537.7 0 484 0C430.3 0 376.7 0 322.8 0C269 0 215 0 161.2 0C107.3 0 53.7 0 26.8 0L0 0Z" fill="#F13737" stroke-linecap="round" stroke-linejoin="miter"></path></svg>